<?xml version="1.0" encoding="UTF-8"?>
<svg xmlns="http://www.w3.org/2000/svg" xmlns:xlink="http://www.w3.org/1999/xlink" width="65px" height="65px" viewBox="0 0 65 65" version="1.1">
<defs>
<radialGradient id="radial0" gradientUnits="userSpaceOnUse" cx="0" cy="0" fx="0" fy="0" r="1" gradientTransform="matrix(21.990442,0,0,21.990442,32.508126,32.504676)">
<stop offset="0" style="stop-color:rgb(93.333333%,83.921569%,53.333333%);stop-opacity:1;"/>
<stop offset="0.685393" style="stop-color:rgb(92.156863%,73.333333%,6.27451%);stop-opacity:1;"/>
<stop offset="1" style="stop-color:rgb(76.470588%,57.254902%,18.039216%);stop-opacity:1;"/>
</radialGradient>
</defs>
<g id="surface1">
<rect x="0" y="0" width="65" height="65" style="fill:rgb(0%,0%,0%);fill-opacity:1;stroke:none;"/>
<path style=" stroke:none;fill-rule:nonzero;fill:url(#radial0);" d="M 15.605469 16.160156 L 15.605469 48.816406 L 32.507812 58.609375 L 49.414062 48.816406 L 49.414062 16.160156 L 32.507812 6.402344 Z M 30.402344 15.425781 L 31.699219 15.425781 L 31.699219 26.933594 L 32.578125 27.597656 L 33.457031 26.933594 L 33.457031 18.894531 L 34.386719 18.359375 L 33.488281 16.179688 L 34.6875 15.6875 L 35.519531 17.707031 L 38.144531 16.195312 L 38.792969 17.316406 L 34.753906 19.644531 L 34.753906 27.578125 L 32.578125 29.222656 L 30.402344 27.578125 L 30.402344 19.632812 L 26.179688 17.027344 L 26.859375 15.921875 L 30.402344 18.109375 Z M 36.21875 21.242188 L 39.417969 19.523438 L 39.699219 16.5625 L 40.992188 16.683594 L 40.789062 18.789062 L 42.890625 17.660156 L 43.503906 18.804688 L 37.515625 22.015625 L 37.515625 24.183594 L 42.851562 22.5 L 43.304688 20.082031 L 45.957031 19.109375 L 47.253906 18.632812 L 47.253906 20.015625 L 45.957031 20.492188 L 44.445312 21.046875 L 43.984375 23.503906 L 37.558594 25.53125 C 37.695312 26.28125 38.144531 26.964844 38.691406 27.796875 C 39.570312 29.140625 40.667969 30.808594 40.667969 33.421875 L 40.667969 50.058594 L 40.648438 50.070312 L 39.375 50.808594 L 39.375 33.421875 C 39.375 31.199219 38.476562 29.828125 37.609375 28.511719 C 36.933594 27.480469 36.289062 26.503906 36.226562 25.269531 L 36.21875 25.269531 Z M 27.5 21.109375 L 21.242188 18.1875 L 21.789062 17.011719 L 28.796875 20.28125 L 28.796875 25.179688 L 28.792969 25.179688 C 28.761719 26.457031 28.105469 27.453125 27.410156 28.511719 C 26.542969 29.828125 25.644531 31.199219 25.644531 33.421875 L 25.644531 50.808594 L 24.347656 50.058594 L 24.347656 33.421875 C 24.347656 30.808594 25.445312 29.140625 26.328125 27.796875 C 26.882812 26.949219 27.339844 26.253906 27.46875 25.488281 L 20.574219 22.679688 L 20.574219 21.210938 L 19.0625 20.511719 L 17.765625 19.910156 L 17.765625 18.484375 L 19.0625 19.082031 L 21.871094 20.382812 L 21.871094 21.808594 L 27.5 24.101562 Z M 33.390625 30.476562 L 34.6875 29.441406 L 34.6875 53.554688 L 33.390625 54.304688 Z M 30.378906 53.554688 L 30.378906 29.441406 L 31.675781 30.476562 L 31.675781 54.304688 Z M 36.40625 30 C 37.128906 30.71875 37.703125 31.738281 37.703125 33.097656 L 37.703125 51.808594 L 36.40625 52.558594 Z M 27.363281 51.808594 L 27.363281 33.097656 C 27.363281 31.738281 27.933594 30.71875 28.660156 30 L 28.660156 52.558594 Z M 27.363281 51.808594 "/>
</g>
</svg>
